<svg class="text-brand-2" width="41" height="40" viewBox="0 0 41 40" fill="none" xmlns="http://www.w3.org/2000/svg">
<path d="M11.7821 10.9431L5.51826 17.2069C3.97568 18.7495 3.97569 21.2505 5.51826 22.7931L11.7821 29.0569C13.3247 30.5995 15.8257 30.5995 17.3683 29.0569L23.6321 22.7931C25.1747 21.2505 25.1747 18.7495 23.6321 17.2069L17.3683 10.9431C15.8257 9.40049 13.3247 9.40049 11.7821 10.9431ZM6.91479 18.6035L13.1786 12.3396C13.9499 11.5683 15.2004 11.5683 15.9717 12.3396L22.2356 18.6035C23.0069 19.3747 23.0069 20.6252 22.2356 21.3965L15.9717 27.6604C15.2004 28.4317 13.9499 28.4317 13.1786 27.6604L6.91479 21.3965C6.14351 20.6252 6.14351 19.3747 6.91479 18.6035ZM23.6321 29.0569L21.8967 27.3215L23.2933 25.925L25.0287 27.6604C25.8 28.4317 27.0505 28.4317 27.8218 27.6604L34.0856 21.3965C34.8569 20.6252 34.8569 19.3747 34.0856 18.6035L27.8217 12.3396C27.0505 11.5683 25.8 11.5683 25.0287 12.3396L23.2933 14.075L21.8967 12.6785L23.6321 10.9431C25.1747 9.40049 27.6757 9.40049 29.2183 10.9431L35.4821 17.2069C37.0247 18.7495 37.0247 21.2505 35.4821 22.7931L29.2183 29.0569C27.6757 30.5995 25.1747 30.5995 23.6321 29.0569Z" fill="#004B7A"/>
</svg>
