<svg class="text-brand-2" width="41" height="40" viewBox="0 0 41 40" fill="none" xmlns="http://www.w3.org/2000/svg">
<path d="M12.5994 8.14971C12.5994 5.96818 14.3679 4.19971 16.5494 4.19971H23.6313C24.417 4.19971 25.1706 4.51183 25.7261 5.0674L33.4567 12.798C34.0123 13.3536 34.3244 14.1071 34.3244 14.8928V27.8997C34.3244 30.0812 32.5559 31.8497 30.3744 31.8497H16.5494C14.3679 31.8497 12.5994 30.0812 12.5994 27.8997V8.14971ZM16.5494 6.17471C15.4587 6.17471 14.5744 7.05895 14.5744 8.14971V27.8997C14.5744 28.9905 15.4587 29.8747 16.5494 29.8747H30.3744C31.4652 29.8747 32.3494 28.9905 32.3494 27.8997V16.0497H25.4369C23.8008 16.0497 22.4744 14.7234 22.4744 13.0872V6.17471H16.5494ZM24.4494 6.58374V13.0872C24.4494 13.6326 24.8915 14.0747 25.4369 14.0747H31.9404L24.4494 6.58374ZM8.64941 10.1247C8.64941 9.03395 9.53365 8.14971 10.6244 8.14971V27.8997C10.6244 31.172 13.2771 33.8247 16.5494 33.8247L30.3744 33.8247C30.3744 34.9155 29.4902 35.7997 28.3994 35.7997H16.4297C12.1328 35.7997 8.64941 32.3163 8.64941 28.0194V10.1247Z" fill="#004B7A"/>
</svg>
