<svg width="40" height="40" viewBox="0 0 40 40" fill="none" xmlns="http://www.w3.org/2000/svg">
<path d="M31.2497 5C34.2412 5 36.6663 7.42512 36.6663 10.4167V29.5833C36.6663 32.5749 34.2412 35 31.2497 35H8.74967C5.75813 35 3.33301 32.5749 3.33301 29.5833V10.4167C3.33301 7.42512 5.75813 5 8.74967 5H31.2497ZM31.2497 7.5H8.74967C7.13884 7.5 5.83301 8.80584 5.83301 10.4167V29.5833C5.83301 31.1942 7.13884 32.5 8.74967 32.5H31.2497C32.8605 32.5 34.1663 31.1942 34.1663 29.5833V10.4167C34.1663 8.80584 32.8605 7.5 31.2497 7.5ZM11.2469 10.8333H28.7568C29.4472 10.8333 30.0068 11.393 30.0068 12.0833C30.0068 12.7162 29.5366 13.2392 28.9265 13.3219L28.7568 13.3333H11.2469C10.5566 13.3333 9.99693 12.7737 9.99693 12.0833C9.99693 11.4505 10.4672 10.9275 11.0773 10.8447L11.2469 10.8333H28.7568H11.2469Z" fill="#6699FF"/>
</svg>
