<svg width="40" height="40" viewBox="0 0 40 40" fill="none" xmlns="http://www.w3.org/2000/svg">
<path d="M12 4H28C30.2091 4 32 5.79086 32 8L32 32C32 34.2091 30.2091 36 28 36H12C9.79086 36 8 34.2091 8 32V8C8 5.79086 9.79086 4 12 4ZM12 6C10.8954 6 10 6.89543 10 8V32C10 33.1046 10.8954 34 12 34H28C29.1046 34 30 33.1046 30 32L30 8C30 6.89543 29.1046 6 28 6L12 6ZM26 13C26 13.4909 25.6462 13.8992 25.1798 13.9839L25 14H15C14.4477 14 14 13.5523 14 13C14 12.5091 14.3538 12.1008 14.8202 12.0161L15 12H25C25.5523 12 26 12.4477 26 13ZM26 20C26 20.4909 25.6462 20.8992 25.1798 20.9839L25 21H15C14.4477 21 14 20.5523 14 20C14 19.5091 14.3538 19.1008 14.8202 19.0161L15 19H25C25.5523 19 26 19.4477 26 20ZM26 27C26 27.4909 25.6462 27.8992 25.1798 27.9839L25 28H15C14.4477 28 14 27.5523 14 27C14 26.5091 14.3538 26.1008 14.8202 26.0161L15 26H25C25.5523 26 26 26.4477 26 27Z" fill="#6699FF"/>
</svg>
