<svg width="40" height="40" viewBox="0 0 40 40" fill="none" xmlns="http://www.w3.org/2000/svg">
<path d="M22.6089 20.0461C22.4104 20.0157 22.207 20 22 20H8C5.79086 20 4 21.7909 4 24V27C4 31.1089 8.17609 34 15 34C16.4647 34 17.8073 33.8668 19.0129 33.617C18.7332 33.013 18.5067 32.3793 18.3394 31.722C17.3491 31.9024 16.2345 32 15 32C9.15724 32 6 29.8142 6 27V24C6 22.8954 6.89543 22 8 22H20.5143C21.1242 21.2616 21.8286 20.6041 22.6089 20.0461ZM29 18C31.7614 18 34 15.7614 34 13C34 10.2386 31.7614 8 29 8C26.2386 8 24 10.2386 24 13C24 15.7614 26.2386 18 29 18ZM26 13C26 11.3431 27.3431 10 29 10C30.6569 10 32 11.3431 32 13C32 14.6569 30.6569 16 29 16C27.3431 16 26 14.6569 26 13ZM22 11C22 7.13401 18.866 4 15 4C11.134 4 8 7.13401 8 11C8 14.866 11.134 18 15 18C18.866 18 22 14.866 22 11ZM10 11C10 8.23858 12.2386 6 15 6C17.7614 6 20 8.23858 20 11C20 13.7614 17.7614 16 15 16C12.2386 16 10 13.7614 10 11ZM38 29C38 33.9706 33.9706 38 29 38C24.0294 38 20 33.9706 20 29C20 24.0294 24.0294 20 29 20C33.9706 20 38 24.0294 38 29ZM33.7071 25.2929C33.3166 24.9024 32.6834 24.9024 32.2929 25.2929L27 30.5858L25.7071 29.2929C25.3166 28.9024 24.6834 28.9024 24.2929 29.2929C23.9024 29.6834 23.9024 30.3166 24.2929 30.7071L26.2929 32.7071C26.6834 33.0976 27.3166 33.0976 27.7071 32.7071L33.7071 26.7071C34.0976 26.3166 34.0976 25.6834 33.7071 25.2929Z" fill="#6699FF"/>
</svg>
