<svg class="text-brand-2" width="48" height="48" viewBox="0 0 48 48" fill="none" xmlns="http://www.w3.org/2000/svg">
<path d="M42 47.04H5.99996C4.87496 47.04 3.95996 46.125 3.95996 45V14.04H1.49996C1.20146 14.04 0.959961 13.7985 0.959961 13.5V1.49996C0.959961 1.20146 1.20146 0.959961 1.49996 0.959961H46.5C46.7985 0.959961 47.04 1.20146 47.04 1.49996V13.5C47.04 13.7985 46.7985 14.04 46.5 14.04H44.04V45C44.04 46.125 43.125 47.04 42 47.04ZM5.03996 14.04V45C5.03996 45.5295 5.47046 45.96 5.99996 45.96H42C42.5295 45.96 42.96 45.5295 42.96 45V14.04H5.03996ZM43.5 12.96H45.96V2.03996H2.03996V12.96H43.5ZM28.5 24.54H19.5C17.5485 24.54 15.96 22.9515 15.96 21C15.96 19.0485 17.5485 17.46 19.5 17.46H28.5C30.453 17.46 32.04 19.0485 32.04 21C32.04 22.9515 30.453 24.54 28.5 24.54ZM19.5 18.54C18.144 18.54 17.04 19.644 17.04 21C17.04 22.356 18.144 23.46 19.5 23.46H28.5C29.856 23.46 30.96 22.356 30.96 21C30.96 19.644 29.8575 18.54 28.5 18.54H19.5Z" fill="#004B7A"/>
</svg>
