<svg class="text-brand-2" width="40" height="40" viewBox="0 0 40 40" fill="none" xmlns="http://www.w3.org/2000/svg">
  <path d="M33.3341 15.8367V14.5831C33.3341 12.5121 31.6552 10.8331 29.5841 10.8331H20.0419L16.0736 7.53332C15.4001 6.97329 14.5519 6.66669 13.676 6.66669H7.08342C5.01286 6.66669 3.33414 8.34483 3.33342 10.4154L3.32681 29.5821C3.3261 31.6536 5.00524 33.3334 7.07681 33.3334H7.12074C7.1276 33.3334 7.13445 33.3334 7.14132 33.3334H30.783C32.1213 33.3334 33.2879 32.4226 33.6126 31.1243L36.529 19.4609C36.9894 17.62 35.597 15.8367 33.6995 15.8367H33.3341ZM7.08342 9.16669H13.676C13.9679 9.16669 14.2507 9.26889 14.4752 9.45556L18.7909 13.0443C19.0154 13.2309 19.2982 13.3331 19.5901 13.3331H29.5841C30.2744 13.3331 30.8341 13.8928 30.8341 14.5831V15.8367H10.7072C8.9864 15.8367 7.48642 17.0079 7.06914 18.6773L5.82886 23.6395L5.83342 10.4163C5.83366 9.72607 6.39324 9.16669 7.08342 9.16669ZM9.49453 19.2836C9.63362 18.7271 10.1336 18.3367 10.7072 18.3367H33.6995C33.9706 18.3367 34.1695 18.5914 34.1037 18.8544L31.1872 30.5178C31.1408 30.7033 30.9742 30.8334 30.783 30.8334H7.14132C6.87026 30.8334 6.67136 30.5787 6.73709 30.3157L9.49453 19.2836Z" fill="#004B7A"/>
</svg>

