<svg width="65" height="64" viewBox="0 0 65 64" fill="none" xmlns="http://www.w3.org/2000/svg">
<path d="M40.0398 62.72C29.9058 62.72 25.2218 58.284 19.2318 51.516C17.5438 49.61 12.3618 43.996 12.3618 43.996L11.3598 42.888C8.92578 40.21 7.77979 38.852 7.77979 37.97C7.77979 36.888 8.52778 35.926 9.88378 35.256C12.2598 34.084 16.1418 33.964 18.5218 35.794C20.3118 37.17 23.8758 41.016 25.7798 43.12V14C25.7798 11.224 27.7158 9.28601 30.4878 9.28001C30.4878 9.28001 30.4878 9.28001 30.4898 9.28001C30.4898 9.28001 30.4918 9.28001 30.4958 9.28001C30.4978 9.28001 30.4998 9.28001 30.5018 9.28001C33.2818 9.28601 35.2198 11.224 35.2198 14V29.28H48.3238C53.3958 29.28 57.2198 32.836 57.2198 37.552V45.572C57.2198 54.478 55.1378 62.72 40.0398 62.72ZM13.4298 43.032C13.4338 43.036 18.6198 48.654 20.3098 50.566C26.0398 57.038 30.5078 61.28 40.0398 61.28C53.1038 61.28 55.7798 55 55.7798 45.572V37.552C55.7798 33.656 52.5738 30.718 48.3238 30.718H34.4998C34.1018 30.718 33.7798 30.396 33.7798 29.998V14C33.7798 12.04 32.4598 10.722 30.4958 10.72C28.5378 10.722 27.2198 12.04 27.2198 14V45C27.2198 45.298 27.0358 45.566 26.7558 45.674C26.4778 45.782 26.1598 45.704 25.9618 45.476C25.9018 45.41 19.9958 38.74 17.6458 36.934C15.7958 35.516 12.4678 35.588 10.5218 36.55C9.69579 36.956 9.22179 37.476 9.22179 37.972C9.33579 38.52 11.3478 40.732 12.4278 41.922L13.4298 43.032ZM22.0098 23.458C19.3138 21.07 17.7678 17.622 17.7678 14C17.7678 6.98601 23.4738 1.28001 30.4878 1.28001C37.5018 1.28001 43.2078 6.98601 43.2078 14C43.2078 17.622 41.6618 21.068 38.9658 23.458L38.0078 22.38C40.3958 20.264 41.7658 17.21 41.7658 14C41.7658 7.78001 36.7078 2.72001 30.4858 2.72001C24.2658 2.72001 19.2058 7.78001 19.2058 14C19.2058 17.21 20.5758 20.266 22.9638 22.38L22.0098 23.458Z" fill="#595B5D"/>
</svg>
